<svg id="Calque_1" data-name="Calque 1" xmlns="http://www.w3.org/2000/svg" viewBox="0 0 827.23 1080"><defs><style>.cls-1{fill:#fff;}</style></defs><path class="cls-1" d="M731.47,33.27H923.22q0,506.9,0,1014h-1014V33.27H98.76a13.26,13.26,0,0,1-2.64,1.26c-40.79,9.1-64.58,37.75-64.59,79.08q-.16,425.91,0,851.8c0,46.76,33,79.89,79.65,79.93q303.92.3,607.83-.25a86.4,86.4,0,0,0,36.11-8.06c31.12-15,43.71-41.65,43.7-75.57q-.2-421.46-.08-842.91c0-3.62,0-7.25-.18-10.86-1.08-17.22-6.69-32.59-17.64-46.19C768.06,45.5,750.68,37.91,731.47,33.27Z"/><path d="M731.47,33.27c19.21,4.64,36.59,12.23,49.47,28.23,10.95,13.6,16.56,29,17.64,46.19.23,3.61.18,7.24.18,10.86q0,421.45.08,842.91c0,33.92-12.58,60.59-43.7,75.57a86.4,86.4,0,0,1-36.11,8.06q-303.92.71-607.83.25c-46.64,0-79.63-33.17-79.65-79.93q-.24-425.89,0-851.8c0-41.33,23.8-70,64.59-79.08a13.26,13.26,0,0,0,2.64-1.26Zm2.08,506.05q0-210.48,0-421c0-17.43-2.49-19.92-20-19.92h-597c-17.43,0-19.93,2.51-19.93,20q0,421,0,841.92c0,17.4,2.55,19.94,20,19.94h597c17.42,0,19.91-2.5,19.91-20Q733.56,749.81,733.55,539.32Z"/><path class="cls-1" d="M733.55,539.32q0,210.48,0,421c0,17.46-2.49,20-19.91,20h-597c-17.43,0-20-2.54-20-19.94q0-421,0-841.92c0-17.44,2.5-20,19.93-20h597c17.47,0,20,2.49,20,19.92Q733.56,328.84,733.55,539.32ZM145.76,521.69q0,151.68,0,303.38c0,28.56,11.66,40.28,40,40.28H644.42c28.38,0,40-11.72,40-40.28q0-303.39,0-606.77c0-28.6-11.64-40.33-40-40.33q-229.3,0-458.61,0c-28.4,0-40,11.73-40,40.33Q145.74,370,145.76,521.69Z"/><path d="M145.76,521.69q0-151.7,0-303.39c0-28.6,11.64-40.33,40-40.33q229.31,0,458.61,0c28.4,0,40,11.73,40,40.33q0,303.39,0,606.77c0,28.56-11.66,40.28-40,40.28H185.81c-28.38,0-40-11.72-40-40.28Q145.74,673.38,145.76,521.69Zm65.73-278.05V799.49H618.61V243.64Z"/><path class="cls-1" d="M211.49,243.64H618.61V799.49H211.49Zm57.7,158.41H561V338.11H269.19ZM561.2,490H269.34v63.58H561.2ZM561,641.23H269.26v63.88H561Z"/><path d="M269.19,402.05V338.11H561v63.94Z"/><path d="M561.2,490v63.58H269.34V490Z"/><path d="M561,641.23v63.88H269.26V641.23Z"/></svg>